<mxfile host="app.diagrams.net" modified="2023-11-16T13:10:42.515Z" agent="Mozilla/5.0 (Windows NT 10.0; Win64; x64) AppleWebKit/537.36 (KHTML, like Gecko) Chrome/119.0.0.0 Safari/537.36" version="22.1.2" etag="B4iss_AmJI7if_Bm1IGE" type="github">
  <diagram name="PÃ¡gina-1" id="S4BUSCHaOZwvY0YpVC12">
    <mxGraphModel>
      <root>
        <mxCell id="0" />
        <mxCell id="1" parent="0" />
      </root>
    </mxGraphModel>
  </diagram>
</mxfile>
